/* XPM */
static const char* spy_image_off[] = {
/* width height num_colors chars_per_pixel */
"    50    50      245            2",
/* colors */
".. c #040305",
".# c #788238",
".a c #b4cd36",
".b c #3c4519",
".c c #c4df43",
".d c #5c622f",
".e c #94a357",
".f c #d4e29e",
".g c #e4e4d8",
".h c #5c625c",
".i c #b4c274",
".j c #7c8270",
".k c #9ca290",
".l c #ccdf6f",
".m c #444547",
".n c #e4f2a0",
".o c #c4d46e",
".p c #647232",
".q c #6c7262",
".r c #ccd5a1",
".s c #ecf3d6",
".t c #dcee7e",
".u c #8c9271",
".v c #bcd53b",
".w c #acb68c",
".x c #4c5246",
".y c #849254",
".z c #a4b25f",
".A c #ccde84",
".B c #f4f4ef",
".C c #fcfeb0",
".D c #5c5d49",
".E c #e4eea2",
".F c #bcd259",
".G c #bcc488",
".H c #747378",
".I c #4c5214",
".J c #c4de59",
".K c #5c624c",
".L c #848d40",
".M c #d4d5ca",
".N c #6c7346",
".O c #8c928c",
".P c #646a61",
".Q c #b4b4b1",
".R c #c4c5c2",
".S c #acb377",
".T c #343a0c",
".U c #848586",
".V c #ecf4c0",
".W c #747a62",
".X c #a4aa92",
".Y c #f4fbd8",
".Z c #d4e788",
".0 c #d4e76f",
".1 c #cce65a",
".2 c #c1da3b",
".3 c #54545e",
".4 c #e4edbe",
".5 c #646b46",
".6 c #acc254",
".7 c #ccda9c",
".8 c #f4faec",
".9 c #4c542f",
"#. c #747c47",
"## c #7c8459",
"#a c #e4e2ec",
"#b c #bccc70",
"#c c #c4da6d",
"#d c #5c5a61",
"#e c #c4cc88",
"#f c #acba71",
"#g c #040e04",
"#h c #dcea9e",
"#i c #848c70",
"#j c #ecfab0",
"#k c #949c70",
"#l c #8c9c48",
"#m c #ccda64",
"#n c #b4baac",
"#o c #444b32",
"#p c #6c6670",
"#q c #444a44",
"#r c #dcee8f",
"#s c #545a4d",
"#t c #c4da5b",
"#u c #848a5a",
"#v c #ccda89",
"#w c #949a94",
"#x c #6c6c6e",
"#y c #545c39",
"#z c #5c6a24",
"#A c #9caa50",
"#B c #a4a4a7",
"#C c #e4f2ae",
"#D c #b4bd8f",
"#E c #d4dac4",
"#F c #7c7d61",
"#G c #fcfed9",
"#H c #dce988",
"#I c #d4dcb6",
"#J c #c4cd9c",
"#K c #cce64c",
"#L c #64656d",
"#M c #d4e277",
"#N c #747e24",
"#O c #747560",
"#P c #bcd546",
"#Q c #f4f9ca",
"#R c #cce059",
"#S c #747650",
"#T c #c4ce7a",
"#U c #7c8a3c",
"#V c #b4cc48",
"#W c #cce24a",
"#X c #dce6a2",
"#Y c #848571",
"#Z c #a4a591",
"#0 c #ccd67c",
"#1 c #f4f6dd",
"#2 c #54554e",
"#3 c #8c9360",
"#4 c #acba50",
"#5 c #d4e18d",
"#6 c #3c3d37",
"#7 c #b4ca54",
"#8 c #7c7b7a",
"#9 c #8c8c89",
"a. c #ececec",
"a# c #acaea7",
"aa c #949e64",
"ab c #a4ae70",
"ac c #ccd2bc",
"ad c #060a04",
"ae c #444a1f",
"af c #e4f684",
"ag c #545a1f",
"ah c #5c5e5e",
"ai c #888e60",
"aj c #748244",
"ak c #c4c6b1",
"al c #8c9284",
"am c #a4a97f",
"an c #b4bc81",
"ao c #949a7c",
"ap c #bcbdbe",
"aq c #646c39",
"ar c #9caa64",
"as c #dcdad6",
"at c #c8ceb0",
"au c #6c7a3c",
"av c #acba5c",
"aw c #f8fec6",
"ax c #ecfabc",
"ay c #c4da47",
"az c #e4edaf",
"aA c #b4baa4",
"aB c #3c3d47",
"aC c #9ca664",
"aD c #bcc674",
"aE c #4c4654",
"aF c #8c934e",
"aG c #acb65c",
"aH c #fcf6fc",
"aI c #c4d659",
"aJ c #646550",
"aK c #ccd58c",
"aL c #acae97",
"aM c #dcea7c",
"aN c #d4e861",
"aO c #eceec8",
"aP c #6c6e4c",
"aQ c #b4c45c",
"aR c #d4dca1",
"aS c #fcfef6",
"aT c #54563c",
"aU c #ece6f4",
"aV c #0c1008",
"aW c #949e54",
"aX c #ccccc8",
"aY c #4c4e39",
"aZ c #4c4c4b",
"a0 c #9c9b98",
"a1 c #ccda73",
"a2 c #645e64",
"a3 c #646460",
"a4 c #ecf6a4",
"a5 c #6c7631",
"a6 c #949492",
"a7 c #6c6c61",
"a8 c #b4be74",
"a9 c #8c8e6f",
"b. c #bcbcb3",
"b# c #e4f192",
"ba c #5c5e3c",
"bb c #ecf3b3",
"bc c #cccea4",
"bd c #c4d64c",
"be c #bcce49",
"bf c #eceed9",
"bg c #bccc58",
"bh c #7c834a",
"bi c #949381",
"bj c #b4b5a1",
"bk c #9c9e84",
"bl c #a4ae5c",
"bm c #747c38",
"bn c #b4be64",
"bo c #040214",
"bp c #3c4624",
"bq c #c4de4c",
"br c #5c643c",
"bs c #ccde7c",
"bt c #c4d57c",
"bu c #ecf2e4",
"bv c #f4f2fc",
"bw c #5c5c54",
"bx c #bcc394",
"by c #848e4c",
"bz c #c4d294",
"bA c #d4d5d4",
"bB c #c4c6cc",
"bC c #acb484",
"bD c #ecf3cc",
"bE c #747a6c",
"bF c #f4fae4",
"bG c #d4e694",
"bH c #d4e77c",
"bI c #54526c",
"bJ c #e4ebcc",
"bK c #646a54",
"bL c #747b54",
"bM c #7c8664",
"bN c #bccb7c",
"bO c #c4cd94",
"bP c #dceaac",
"bQ c #848864",
"bR c #dcdec4",
"bS c #7c7d6c",
"bT c #fcfde4",
"bU c #dce994",
"bV c #74736c",
"bW c #cce064",
"bX c #dce5ac",
"bY c #84857c",
/* pixels */
"#h.Eazaz.4aO.s.s#1.sbDaOazazaz#h.Z#H.ZbH.lbWbW#R#Rbq#Wbq.c.2.2#P.vay#t#Pbebe.F#P.v.v.v.2.2.cayayay.2",
".Eaz#C.V.V.s.s#1#1#1.sbD.V#C#C.E.E.Eb#b#.Z#M#c#t.1#Rayaybq.c#P.a.v#Pbq#R.J#R#Ray#K#W#K.c#Wbqbqay#P.2",
"#C.V.V#Q.Y.YbTbFbF.Y#1bD.V.Vbb#C.n.EbU.Z#H#H.0.0aIbW#R#R#Ray#RaN#K#Wbqbqay.Jbqbqbqay.2.cayay#Payay.2",
".V.Vaw.YbTbTbTaSbTbF#1.Y.Y.VbbbbazbP.E.E.nbU#5bs.l#c#c#tbW.1#Rbqay.cay#W.1#W#tay#Wbqbqbqbq.cbqay.2.2",
".VbD.YbTbTaSaSaSaSaSbF.Y.Y#Qax.V#Ca4#C.n.E.nb#b##H.t.0.0bW#t#t#t.1aN#Way.caybq#R#R#t#W#tayayay.v#P#P",
"bD.YbFbTaSaSaSaSaSaSaSbTbT.Y.Y#Qax.V.VbPbX#X.f#XaR#5.Abt#0.oa1a1be#R.J.v#P#P.vbq#Pbd#P#Pbd#P.v.v.2.2",
"#1#1bFbTaSaSaSaSaSaSaSaSbTbT.Y.Y.sbfbJbRatbj.ka9.ubLbraq###3bh.p#N#4aI#taN#K.2.vbqay#t.J#W#Rbqbqayay",
"#1bFbTaSaSaSaSaSaSaSaSaSaSbT.Y#1bf.M#na0bi#9#Y.j#ObE#Oa7#y.x.9.d.ybN.A.FaI#W.c#K#W#Wbqayayay.2ay.v#P",
"#1.8bTaSaSaSaSaSaSaSaSaSaS.8#1bfacaAaL#Z.kalbYbY#8bEbVa3#saZaYaZ.9.9aCbt.o#Pbd.v.2.v.2.2ay#P#Vay#P.v",
"#1#1#1aSaSaSaSaSaSaSaSaSaS.B.g.M.Rb.a#.Xa0a6bi.ObYbEbV.Ha7ah#2#2aE#o.ba5bn#c.c#K.v.2.2.v.a#P#P#Pay#P",
".s.s.8bFaSaSaSaSaSaSaSaSaSa.#E.Rapap.Q#Ba0a6.U#8.U.H#pa3ahaEaEbI#daZaTaea5aQaQay.2.2.2.2.vayay#P#P.v",
"bD.s#1bFbTaSaSaSaSaSaH.Ba.#aas.MbBap#Ba0a0#wbi#YbSbSbEbVa3aZaZ.x.m#2aZ#qae#z.z.Fbq.2.2.c.2.c.Jbe#P#P",
".VbD#Q.Y#GbTaSaSaSaSbva.as.MbAbAapb.bjaL.kam.G.raRaR#eabai.N.9bpaZ#6aZ#6#oaYag#b#cbq.v.c.c.vay#P.vbd",
".V.V.V#Q.YbTbTbTaSaS.B.gbAaXaX.RacaAaLbxbX.E#h#5.o#5#r.n#rbNaWaq.9#2.maZaZ#6.9.p#b#R.v.v.2.a#P#P#P.v",
"az#C.VbDaw.YbFbT.8.B.gbAbAaXbBapa#atbJ.VbP#5#H#raf.tbW#caIa1.o#b#S#oaTaZaB#2aY.T#l.o#P.v.2.aayaybd#P",
"azaz.V.Vax#Q.YbF.s.gbAaXbBbBapbjakbR.4az.n.n#rbHbH#MbH.Zbs.o.oa1#e##aYaZ.3aEaBaT.daDaI.vay.vbd#P.v#P",
"#X#h.CbPbb.Vax#1.g.MbAaX.Rb.a#akbXaz#Hb#b#b#.t#5bX#Q#IbO#.au#5bt#T#5#3.5aJa3#d#paJby.1.2.c#R#P#tay.2",
"az#h#j.nbb#C#QbD#E.R.R.Rb.a#bj#I#QbU#r.t#rbs#H.E.Y...s#Y.W#F.y#v#vbta8###S#x#p#Lah#.aI.cbq#R.Fay#t.2",
".E#h.n.n#Caz.VbJaX.Qb..R.Q#ZbcbX#X.Z#r#H.tbU#5awad.....8bS.qaPby#5bs#5aa#y.h#L#p.haP.6#W.Jbq.J#R#P#P",
"bU#H.nbU.nbX.V#Ib..Q.QapaL.X#Iazazb#.Z#5bU.E#h.r.s..aSbYbVbS.W#.aF#b.Z#0.5aJbw#La3aJ#AbW#Ray#R.J.Jay",
"#H.Z#HbU#h#X.4aka#a##Ba##ZbjbX.fbU#r#v#h#5.V.4aVadad....aSa3bVbL.##b#m.Z#3aJ#2ahah.D#U.0#t#t#R#t#W.J",
"bHbH.Z#HbU#X.4bja0#B#Ba0#Z#Jaz#5#H#vazaz.f.V#E#1.s..aS.B#8aS#x.qa8aM#c.oan.K.D#d#d.D.p#0#t#R#t#R#R.J",
".l.0.tbH.Z#X.4bka0a0a6a6am.r#hbU.nbtaz#G#Iad.B.B......aSaS...H.B.7a1.J.l.f.NaJa3#dah.dbt#t#R#t#R.Jbq",
"#t.0.0.0#5bGazbia6#9a6.Uam.r#5#r#5.E.V..bT..bv..#1bT.8...B..bv..aw#M#c#M.G.5.D.q#d#x#y#T.l#R#t.J#R#R",
"#t#R.0.0#MbUaz.u.Ua6#8a0#i.7bU#HbUawad..ad..bo..aS..aS..........#g.C.Ja1aK.5.K.ha2a3aPbN.l#RaI#R.J.J",
"#t#R#R.1.l.ZbP.u.ja6.H.Ua9bO#5.Z#5.f#Gadbu..aHbo.8bTbT..bFad#a...4#v#H#r#f.5.Wbwa2.P.5#0#c#R#tbW.J#R",
"#R.J.J#RbWbHbU#3bS#9#8.U.jbC#5#5#5aRbL#1.UadaUaS......bT.s...Ubvbcbz#0#b#D.5.Ka3.h#xaq#5aI.JbW.J#R#t",
"#Ray#Way#R#M#5aa#8bE#8#8#F#kaz.f#5.yam#O.HaS#xaU.8aVbF.KbT.B#x#s.K#D.7.f#uaJ.K#dahaJaj.AaIbWbW#m.J.J",
"#t#t#Wbqbq#RbH.S.N#x#x#LbS#ibO#5aK.zbmbL.Ka3.B......#g..aSa7#2#8a7#FbC.r#yaPa3a3ah#y#A.lbWbW#R.J#R.J",
"bdbd.1.c.c#RbH#b#ybV#LaZbVaJ#3aR#v.Z#fbhbKa7.P#O.BaVaO.W.h#xa3a3.P.DaJ#kaJ.Da3a7a2.K#baIbWbW#tbW.J#R",
".F#P#W.2aybq#Mbt#.bK#xaE.haYaJ.i#5a1bGab.5.DaP.8....ad.sa3a7a3a3a3.h#s.jaJ#2a7aZa3bh.l.J#RbWaI#R.J.J",
"aI#P#W.v.2.c#R#0#fba.h#2#2#2.KbM#e.A#5.7an.5bx#J#G..aw#J#FaJa3a7.ha2aJ#2aJbV.m.PaJ#k.0#R#t#t#tbW.J#R",
"#P.Fayay.2bq#R.J#0auaPaZ#2#d#da2#ibxaK#Xbtbt#vbtbt.Ca1#5bN.N.qa3a2.ha3bwbwa3.Pbw.5bNbsbWaNbW#m#c#m.J",
"#P#P.2ay.c.c#R.J.o.iau.IaZaZbI.3bVa9bO#ebU#0#M.l.l#c.t.o.A#eaPbKaJbw#2#da3a3ah.DbC.7a1.F#R.JbWbW.J.J",
"#Pbd#Payay#R.J#R#m#b.e.d#oaZaB#d.HbrbQ.y#e#vbt.obH.oa1#b.faR#ia3.Pa7a3.hbw#2ah#ObC#e#m.J#R#W.1#m.J#R",
"#P.2ay#Pbd.J#R.Jbe#ca1#U.T#saZaZa7aP.5bLauaaaCaD.z#T.i.SbQbr.P.Da3a7a3#2a3a3#daT.Nar.l.0ay.JaN.F#R.J",
".v.2#P.F#t#R.J#tbeaNbW.o.p.baT.xaJbSa3bS#2.qa7.W.WaT.K#s.D.qa3a7#d.P#x#L#L#Lah#d#y#.aGbW#t#t#R.J#R.J",
".2.vbd#Pay#m#Rbq.2bqbeaN#b#NaebpaP.W.h#x#x#x#x#2a7#2a7a3#da3#2.Pa3#da3#x#d#d#L#x.D.9.L#7bW#R#m#c#R.J",
".v#P#P#P#t.J#Way.a.caN.a.la1#U.I.5bKbV#L.Hah#O.WaJaJ#2a3#paha3#dbV.x.Da7a7a3a3#2.Kaq.e.o.l.0#t#c#R#t",
".v#P#P#Pay#Rbq.c.2.c.c#R.J#7bsavbhbraPa3a7a3.P#Oba.q.hahah#dbK.KbabL#Dbx#F.Ka7.K.NaC#5#M#c.1#mbW.J.J",
"#P#P#Pbd.cbq#W.cay.c.cbq#tbdaI#c#ba8bQ.K.Pa7a3.qa7a7a3bw.D.KaPajavbt#0btbN.Lag.pa8bN.l.Jay.J#R#R#R.J",
"aI#P#P#P.c#K.c.c.2ayaybqay#Paybq.F.l#0.G.wao###F.N.N.NbQ#kabaD#0.o.lbW.l.l.z#lbl#ba1bW#Rbq#W#R#R.J#R",
"#Pbe#P.2.c.c#W.c.v.vaybqay.2.2.c.v#R.l.la1.o.o.l.Z#Ma1bt#c#0#c.lbWbW#R#R.1bW.oa1a1bsbW#t#W#R#R.J.J#R",
".F#Pbd.2.2#W.c.c.2#P#Payay.2.2.c.vay.c#R.1.laN#R#t#t#t#m.J#R#RbWbW#R.J#R#RbW.l.o.l.l#t#t.J#R#R#t#R.J",
"#P.2#Pbday.c.c#W#Pbd.2aybq.2ay.c.c.2.cbq#R#RaIbgbWbW.1.1#R#R#RbWbW#c#R#R#t#R.l.o.oa1.J#m.J#R.J#c#t.J",
".2.v#Payayay#tayay.v#P.cay.2ayay#W.v.2.cay.J.0.laIbWaN#Rbq#t#t.J#c#m#R.Jay#RbWbW#c.lbW#R#t#R#c#m.J#R",
".2.2.2ayaI#t#t.Jbd.2.2.2.2#P#PaIay#PbqaN#W.J.laI#cbW#R#R#R#R.l.la1#c.Jbq#W.J#RbW#R#R#R#R#W.J#m.J#R.J",
".2.vay#PaI#t#t#t.2.v.v.2.2ay#P.F#Rbe#P.2bd#R#R#cbW#R#Rbq.J#R.laI#c#R#t#W.1.1bq#t#R.J#tbqbq#W.J#RbW#R",
".v.v.2#P.2ay#P#W#P.v.2#P#P#P#Pbd#P#P#P#P#P.J#R.J#m.J#R.J#R.J#m.JbW.J#R.J#R.J#R.J.J#R.J#R.J.J#R.J.J.J",
"#P.v#P#Paybq#Pbq.v#P#P#P.v#P.v#P.vay#P#Pbd.J#R#t#R#t#R#t#R#c#R#c#R#t#R.J.J#R.J#R.J#m.J.J#R.J.J#R.J#R"
};
