/* XPM */
static const char *spy_image_on[] = {
/* width height num_colors chars_per_pixel */
"    50    50      174            2",
/* colors */
".. c #c0c0c0",
".# c #63634a",
".a c #4a4a42",
".b c #4a4a4a",
".c c #52524a",
".d c #525252",
".e c #5a5a42",
".f c #5a5a52",
".g c #5a5a5a",
".h c #5a634a",
".i c #63635a",
".j c #636363",
".k c #636b42",
".l c #636b4a",
".m c #636b52",
".n c #636b5a",
".o c #6b6b5a",
".p c #6b6b63",
".q c #6b6b6b",
".r c #6b7342",
".s c #6b735a",
".t c #6b7363",
".u c #6b736b",
".v c #737363",
".w c #73736b",
".x c #737373",
".y c #737b4a",
".z c #737b52",
".A c #737b5a",
".B c #737b63",
".C c #737b6b",
".D c #7b7b52",
".E c #7b7b6b",
".F c #7b7b73",
".G c #7b7b7b",
".H c #7b8452",
".I c #7b845a",
".J c #7b8463",
".K c #848463",
".L c #848473",
".M c #84847b",
".N c #848484",
".O c #848c63",
".P c #848c6b",
".Q c #8c8c6b",
".R c #8c8c7b",
".S c #8c8c84",
".T c #8c8c8c",
".U c #8c945a",
".V c #8c9463",
".W c #8c946b",
".X c #8c9473",
".Y c #8c9484",
".Z c #8c9c4a",
".0 c #8c9c52",
".1 c #94947b",
".2 c #949484",
".3 c #94948c",
".4 c #949494",
".5 c #949c6b",
".6 c #94a542",
".7 c #94a552",
".8 c #94a55a",
".9 c #9c9c8c",
"#. c #9c9c94",
"## c #9c9c9c",
"#a c #9ca54a",
"#b c #9ca563",
"#c c #9ca56b",
"#d c #a5a5a5",
"#e c #a5ad63",
"#f c #a5ad6b",
"#g c #a5b55a",
"#h c #a5b563",
"#i c #a5b56b",
"#j c #a5bd4a",
"#k c #adad94",
"#l c #adadad",
"#m c #adb563",
"#n c #adb573",
"#o c #adb58c",
"#p c #adb594",
"#q c #adb59c",
"#r c #adbd42",
"#s c #adbd5a",
"#t c #adbd6b",
"#u c #adc64a",
"#v c #b5b5a5",
"#w c #b5b5b5",
"#x c #b5bd73",
"#y c #b5bd7b",
"#z c #b5bdad",
"#A c #b5c64a",
"#B c #b5c652",
"#C c #b5c65a",
"#D c #b5c663",
"#E c #b5c66b",
"#F c #bdbdad",
"#G c #bdbdbd",
"#H c #bdc68c",
"#I c #bdc69c",
"#J c #bdc6a5",
"#K c #bdce42",
"#L c #bdce63",
"#M c #bdce6b",
"#N c #bdce73",
"#O c #bdd631",
"#P c #bdd639",
"#Q c #bdd642",
"#R c #bdd64a",
"#S c #bdd65a",
"#T c #c6c6b5",
"#U c #c6c6c6",
"#V c #c6cea5",
"#W c #c6d652",
"#X c #c6d65a",
"#Y c #c6d663",
"#Z c #c6d66b",
"#0 c #c6d673",
"#1 c #c6d67b",
"#2 c #c6d694",
"#3 c #c6de42",
"#4 c #c6de4a",
"#5 c #c6de52",
"#6 c #c6de5a",
"#7 c #c6de63",
"#8 c #cecece",
"#9 c #ced684",
"a. c #ced694",
"a# c #cede63",
"aa c #cede6b",
"ab c #cede73",
"ac c #cede7b",
"ad c #cede8c",
"ae c #cee76b",
"af c #d6d6ce",
"ag c #d6d6d6",
"ah c #d6de94",
"ai c #d6dead",
"aj c #d6deb5",
"ak c #d6e773",
"al c #d6e77b",
"am c #d6e784",
"an c #d6e794",
"ao c #d6e79c",
"ap c #d6e7a5",
"aq c #dedede",
"ar c #dee78c",
"as c #dee79c",
"at c #dee7ad",
"au c #dee7b5",
"av c #deef94",
"aw c #deef9c",
"ax c #e7e7de",
"ay c #e7e7e7",
"az c #e7efa5",
"aA c #e7efad",
"aB c #e7efb5",
"aC c #e7efbd",
"aD c #e7efce",
"aE c #efefe7",
"aF c #eff7c6",
"aG c #eff7ce",
"aH c #eff7d6",
"aI c #f7f7d6",
"aJ c #f7f7e7",
"aK c #f7ffde",
"aL c #f7ffe7",
"aM c #ffffef",
"aN c #fffff7",
"aO c #ffffff",
"aP c #fffbf0",
"aQ c #a0a0a4",
"aR c #808080",
/* pixels */
"avawaAaBaCaCaCaFaFaFaFaCaBaAazasarararalaaa##7#6#6#5#5#4#4#Q#Q#Q#Q#Q#Q#Q#Q#Q#Q#Q#Q#Q#Q#Q#4#4#4#4#4#O",
"azaAaBaCaFaGaHaHaHaHaGaFaCaBaAazawawasaramaka#a##6#5#4#5#5#4#Q#Q#Q#Q#4#4#4#4#4#4#4#5#4#4#4#4#4#Q#Q#Q",
"aAaCaFaGaHaJaJaJaJaKaHaGaFaCaBaBaAazasavaramalaaa##7#6#4#4#4#4#5#5#5#6#6#5#6#6#6#4#4#4#4#Q#Q#Q#4#4#Q",
"aBaFaGaKaJaPaPaPaPaJaJaHaGaGaFaCaBazawawavaramalaaaaa#a#aaa#aaaaa##6#5#4#4#4#4#4#4#4#4#4#4#4#4#Q#Q#Q",
"aCaGaIaJaPaNaNaNaNaMaLaJaKaHaGaFaCaBaAawawawawasaralaaa##6#6#5#4#4#5#5#5#5#5#4#4#4#4#4#4#4#4#Q#Q#Q#Q",
"aFaHaJaPaNaNaOaOaNaNaMaLaJaKaIaGaGaFaBaAawawararamamaaa##6#6#5#5#4#4#4#4#Q#Q#Q#Q#Q#Q#Q#Q#Q#Q#Q#Q#Q#Q",
"aFaKaJaPaNaOaOaOaOaOaNaNaMaLaKaGaFaCaBat#V#k.9.S.G.x.p.m.H.l.4#u#4#4#4#4#4#4#4#4#4#4#4#4#4#4#4#4#4#4",
"aGaJaLaNaNaOaOaOaOaOaNaMaLaKaHaGaCaj#v##.4.T.NaR.G.x.x.j.d.d.b.h.Z#R#4#4#4#4#4#4#4#4#4#4#4#4#Q#Q#Q#Q",
"aHaKaJaPaNaOaOaOaOaOaNaNaMaJaIaD#U#w#l#d##.4.TaR.G.x.x.q.d.d.b.b.b.c#a#4#Q#Q#Q#Q#Q#Q#Q#Q#Q#Q#Q#Q#Q#Q",
"aGaIaJaMaNaNaOaOaOaOaNaNaLaJax#8#U#G#l#d.4.T.T.TaR.G.x.x.j.g.d.d.b.a.a.k#K#4#4#4#Q#Q#Q#Q#Q#Q#Q#Q#Q#Q",
"aGaHaJaJaMaNaNaOaOaNaNaNaMayag#8..#G#l#d##.4.NaR.N.x.q.q.g.d.d.d.d.d.d.d.##A#4#Q#Q#Q#Q#Q#Q#Q#Q#Q#Q#Q",
"aFaGaHaJaLaMaNaNaNaNaMaLayayaq#8#U#w#l##aQ.4.T.N.GaR.x.q.j.b.b.b.b.b.b.b.a.a#r#Q#4#4#4#4#4#4#Q#Q#Q#Q",
"aCaFaHaHaJaLaMaMaNaNaLayaqagag#8..#G#l#d.4#p#H#9ac#1#1#x.5.f.d.b.b.b.a.a.a.b.e#K#4#4#Q#Q#Q#Q#Q#Q#Q#Q",
"aBaFaFaHaKaKaMaMaLaMaEaqag#8#8#U#U#w#l#Vasavaralalalakakak#X.8.f.b.b.a.b.b.b.a.k#Q#Q#Q#4#Q#Q#Q#Q#Q#Q",
"aAaBaCaGaHaHaLaJaJaJaxagag#U..#G#w#Tauazawawaramamakabaaak#6#5#S.z.d.d.b.b.b.a.a.6#Q#Q#Q#Q#Q#Q#Q#Q#Q",
"azaAaCaFaGaFaKaIaIaqag#8#U#U#G#w#Fazawazawavavaralalalak#Z#W#5#5#W.y.d.b.d.b.b.b.c#R#Q#Q#Q#Q#Q#Q#Q#Q",
"asazaBaCaCaCaIaGaD#8#8#8#G#G#w#zazawawavawawamamamamak#N.F.I#6#5#6aa.P.q.j.j.j.j.g.7#4#4#4#4#Q#Q#Q#Q",
"anazaAaAaBaBaGaFaf#U#U#U..#d#wapazasavavamamavaramal#1.M.q.q.Waaa#a##Y.p.q.q.q.j.j.o#6#6#5#4#4#4#4#Q",
"avawaAazaAaAaFaB#U#w..#G#w#d#Iazavasaramaramamamar#9.Y.TaR.x.q.Qaaaaa##e.j.g.j.q.q.j#C#6#6#6#5#4#4#Q",
"aravasawawawaCai#G#w#l#w#l#lahavawararararavaram#9#..T.N.x.x.x.x.W#7a##7.p.g.j.j.g.j#caaa##6#6#5#4#Q",
"amanaravasasaB#J#l#d#l#l#d#vawamavavamasararavao.S.T.T.T.x.x.x.x.x#Maaa#.V.j.g.g.j.g.I#6#6#6#6#6#6#4",
"alamamararanaA#q#d#####daQ#Iawamamararamavara.#..T.G.N.G.G.G.q.w#Eaeaaaa#t.j.g.g.g.g.n#6#6#6#6#6#6#6",
"a#alamamamaraA.9aQ.4.4.4#d#2avavakalararamao#..T.N.T.x.q.x.q.x#Eaaaaa#aa#Z.q.j.j.g.g.g#6#6#6#6#6#6#6",
"#6aaamalalamaz.2.4.4.T.T###2amaramakalama..3.4aRaR.G.x.q.j.w#Eaeaba#aaaa#Y.j.j.q.j.j.g#6#6#6#6#6#6#6",
"#6#6aaalakamaw.Y.N.4aR.T.Ta.amararaaak#9.3.N.N.N.x.q.j.q.q.j#Daaaaaeaea##Z.j.j.g.j.q.ja##6#6#6#6#6#6",
"#5#6#6a#aeamav.R.N.T.G.N.N#2amalamam#M.S.T.T.G.G.x.j.j.j.q.x.p#D#6aaa#ak#L.j.q.j.j.g.jaa#6#6#6#6#6#6",
"#5#5#6#6#6alar.X.G.N.G.N.G#oamalam#9.M.NaR.TaR.j.q.x.j.j.j.q.q.p#Da#aaa##h.j.j.j.j.j.t#6#6a##6#6#6#6",
"#4#5#4#6#5a#am.5.x.N.x.GaR.1aralab.S.T.x.G.x.q.x.j.q.q.j.q.j.q.j.q#s#6a#.W.j.g.g.g.j.Ka##6#6#6#6#6#6",
"#4#5#4#5#4a#ak#g.j.G.q.q.GaRadalab#y.G.x.j.j.q.q.w.v.x.q.j.q.j.q.j.u#D#7.i.q.j.j.g.g#ba##6#6#6#6#6#6",
"#R#4#5#4#4a#ab#X.f.q.j.d.j.j.Waaa#aa#n.x.j.q.j.x#E#Y.v.q.j.j.q.j.j.j.q.V.j.g.j.q.j.g#C#6a#a##6#6#6#6",
"#Q#4#5#Q#Qa#aa#6.y.j.j.d.j.d.g#Na#aaal#n.q.g.p#Eaaaa#Y.s.q.j.j.q.j.j.j.q.j.g.g.g.q.Ba##6#6#6#6#6#6#6",
"#Q#Q#5#Q#4#6a##6#j.g.j.d.d.d.j.E#Yakaaak#i.p#Da#aaa#aa#Y.s.q.j.j.j.g.g.j.j.j.g.g.g#ea#a##6#6#6#6#6#6",
"#Q#Q#5#Q#4#5a##5#4.z.j.d.d.d.g.j.L#0a#alaa#Z#6a#a#aaa#ae#S.v.q.j.j.j.g.g.j.j.j.g.o#X#6a#a#a##6#6#6#6",
"#Q#Q#5#Q#4#5#6#5#3#B.j.d.b.d.d.d.G.E#Naaakaaaa#6a#a#aaa#aa#S.v.q.j.g.j.g.g.j.j.j#h#6#6#6#6a#a##6#6#6",
"#Q#4#Q#Q#4#5#6#5#Q#5#b.d.a.d.a.g.x.q.x.V#0aaaaa#a##6aaa#a##Y.V.g.q.j.g.j.g.g.j.j#sa##6#6#6#6a##6#6#6",
"#Q#Q#Q#Q#4#5#6#5#Q#5a#.D.a.d.a.d.q.x.q.q.q.X#b#E#C#L#s#f.O.j.j.j.j.q.j.g.j.j.g.g.p#sa##6#6#6#6#6a##6",
"#Q#Q#Q#Q#4#6#5#5#Q#5#6#X.l.b.b.b.j.x.j.x.j.x.q.q.j.g.j.g.j.j.j.j.j.j.q.j.g.j.j.g.g.j#s#6#6#6#6#6#6#6",
"#Q#Q#Q#Q#4#6#5#5#Q#4#5#5#R.r.b.a.q.q.q.x.j.q.x.j.q.g.j.j.j.j.g.q.g.j.j.q.j.g.j.j.g.g.p#X#6a##6#6#6#6",
"#Q#Q#Q#Q#4#5#5#5#Q#4#4#5#5#Q.0.a.q.q.q.j.x.g.x.q.j.j.g.j.g.j.j.g.q.g.g.p.q.j.g.j.j.g#ga#a##6a##6#6#6",
"#Q#Q#Q#Q#4#6#4#5#Q#4#4#5#4#Q#4#r.z.j.x.j.q.j.q.x.g.q.j.g.j.g.j.j.g.E#s#S.v.q.j.g.j#m#6#6a#a##6a##6#6",
"#Q#Q#Q#Q#4#5#4#5#Q#4#4#4#4#Q#4#4#4#s.O.j.j.x.g.x.q.j.q.g.j.j.g.J#g#7a##6#S.v.j.j#ga##6#6#6a#a##6#6#6",
"#Q#Q#Q#Q#4#4#4#4#Q#4#Q#5#4#Q#4#4#Q#6#6#Z#h.V.J.E.E.o.C.A.U#h#La#a##6a#a##6#S.B#ha##6#6#6#6#6#6a##6#6",
"#Q#Q#Q#Q#4#4#4#4#Q#Q#Q#4#4#Q#Q#4#Q#5#6aaa#a#a##6aba##6a##6#6a##6a#a##6aa#6a##6#6a##6#6#6#6#6#6#6#6#6",
"#Q#Q#Q#Q#4#4#4#4#Q#Q#Q#4#Q#4#Q#4#Q#4#6#6a#a#a##6aaa#a#a##6#6a#a##6a#a##6aa#6a##6a#a##6#6#6a##6#6#6#6",
"#Q#Q#Q#Q#4#4#4#4#Q#Q#Q#4#Q#4#Q#4#4#Q#6#6a#a##6#6#6aba##6a##6#6a##6#6a##6#6aa#6#6#6a#a##6#6#6a##6#6#6",
"#Q#Q#Q#4#Q#4#4#4#Q#Q#Q#4#Q#4#Q#4#4#Q#4#6#6a##6#6#6aaa#a#a##6#6#6a##6#6a##6#6aa#6#6#6a#a##6#6#6a##6#6",
"#Q#Q#Q#4#Q#4#4#4#Q#Q#Q#4#Q#4#Q#Q#4#Q#Q#5#6#6a##6#6#6aaa##6a##6#6a##6#6#6a##6#6a##6#6#6a#a##6#6#6a##6",
"#Q#Q#Q#4#Q#4#Q#4#Q#Q#Q#Q#Q#Q#Q#Q#4#Q#Q#4#6#6a##6#6#6#6#6a#a##6#6#6a##6#6a#a##6#6#6#6#6#6#6a##6#6#6a#",
"#Q#Q#Q#Q#Q#4#Q#4#Q#Q#Q#Q#Q#Q#Q#Q#Q#Q#Q#Q#4#6#6a##6#6#6a#a##6#6#6#6#6#6#6#6#6#6#6#6#6#6#6#6#6a##6#6#6",
"#P#Q#Q#Q#Q#4#Q#4#Q#Q#Q#Q#Q#Q#Q#Q#Q#Q#Q#Q#Q#5#6#6#6#6#6#6#6#6#6#6#6#6#6#6#6#6#6#6#6#6#6#6#6#6#6#6#6#6"
};
