<?xml version="1.0" encoding="UTF-8" standalone="no"?>
<svg
   xmlns:dc="http://purl.org/dc/elements/1.1/"
   xmlns:cc="http://creativecommons.org/ns#"
   xmlns:rdf="http://www.w3.org/1999/02/22-rdf-syntax-ns#"
   xmlns:svg="http://www.w3.org/2000/svg"
   xmlns="http://www.w3.org/2000/svg"
   xmlns:sodipodi="http://sodipodi.sourceforge.net/DTD/sodipodi-0.dtd"
   xmlns:inkscape="http://www.inkscape.org/namespaces/inkscape"
   version="1.1"
   width="200px"
   height="200px"
   id="svg2"
   inkscape:version="0.91 r13725"
   sodipodi:docname="spy_image_off.svg">
  <metadata
     id="metadata16">
    <rdf:RDF>
      <cc:Work
         rdf:about="">
        <dc:format>image/svg+xml</dc:format>
        <dc:type
           rdf:resource="http://purl.org/dc/dcmitype/StillImage" />
        <dc:title />
      </cc:Work>
    </rdf:RDF>
  </metadata>
  <defs
     id="defs14" />
  <sodipodi:namedview
     pagecolor="#ffffff"
     bordercolor="#666666"
     borderopacity="1"
     objecttolerance="10"
     gridtolerance="10"
     guidetolerance="10"
     inkscape:pageopacity="0"
     inkscape:pageshadow="2"
     inkscape:window-width="1781"
     inkscape:window-height="1342"
     id="namedview12"
     showgrid="false"
     inkscape:zoom="3.9323601"
     inkscape:cx="105.28394"
     inkscape:cy="89.876534"
     inkscape:window-x="4813"
     inkscape:window-y="496"
     inkscape:window-maximized="0"
     inkscape:current-layer="svg2" />
  <rect
     width="200"
     height="200"
     id="rect4"
     x="0"
     y="0"
     style="fill:#a5cd39" />
  <circle
     cx="100"
     cy="100"
     r="60"
     stroke="black"
     stroke-width="25"
     fill="none"
     id="circle6" />
  <line
     x1="100"
     y1="100"
     x2="165"
     y2="165"
     stroke="black"
     stroke-width="25"
     id="line8" />
  <line
     x1="76"
     y1="124"
     x2="124"
     y2="76"
     stroke="black"
     stroke-width="25"
     id="line10" />
  <path
     d="m 179.998,99.612032 c -0.91074,0.27348 -2.36841,0.971388 -3.24943,1.549208 -1.5183,1.03322 -3.49197,3.5229 -3.88671,4.8902 -0.0915,0.39475 -0.27346,0.69792 -0.39473,0.69792 -0.12127,0 -0.60756,-0.75975 -1.09384,-1.67048 -1.06293,-2.03432 -2.73342,-3.61445 -5.01147,-4.67738 -1.42794,-0.668198 -2.12586,-0.789468 -4.43363,-0.789468 -2.30778,0 -3.00688,0.12127 -4.43364,0.789468 -2.30777,1.09385 -3.94853,2.61214 -5.10182,4.82836 l -1.00229,1.8524 -1.57894,-1.48737 c -2.1865,-2.09613 -4.40391,-2.88562 -7.62243,-2.73343 -5.64875,0.24255 -9.65792,4.13045 -10.14302,9.80892 l -0.18191,2.24714 -1.33639,-0.91075 c -5.22309,-3.49196 -12.4817,-1.51829 -15.18421,4.09954 -1.06293,2.15677 -1.42794,4.61673 -0.97138,6.59042 0.18191,0.78946 2.03431,5.22308 4.16017,9.86955 2.09495,4.67736 3.82607,8.59498 3.85699,8.74599 0.0309,0.15218 -0.36383,0.39474 -0.91075,0.54692 -0.51601,0.12127 -1.39703,0.6682 -1.91303,1.18421 -1.33877,1.33756 -3.52527,6.01375 -4.46693,9.56756 -0.66819,2.58123 -0.78947,3.64414 -0.78947,7.41077 0,5.64875 0.3341,6.89359 4.31236,15.88333 5.04119,11.35813 6.46914,13.90964 9.38447,16.97716 4.09953,4.31236 9.65792,6.5904 26.02633,10.72085 4.34327,1.09266 8.22998,2.24712 8.65563,2.55151 0.82038,0.60754 1.03202,0.91073 2.5206,4.31236 0.8501,1.8833 1.21512,2.36959 2.12586,2.79405 0.57783,0.27345 1.33639,0.51601 1.70021,0.51601 0.94166,0 48.95543,-21.37989 49.8971,-22.22999 1.45765,-1.33639 1.42794,-2.52059 -0.24256,-6.5595 l -1.48858,-3.55379 0.15219,-2.88562 c 0.0916,-1.57892 0.15219,-6.1041 0.12127,-10.02174 -0.0309,-8.04807 -0.48628,-11.57094 -2.39932,-18.19108 -1.97367,-6.83295 -4.64646,-12.75515 -12.29979,-26.90735 -2.5206,-4.67738 -6.07321,-11.51034 -7.86616,-15.18422 -2.58123,-5.19337 -3.61325,-6.95422 -4.64646,-7.95652 -2.64186,-2.583598 -6.7414,-3.646538 -10.26429,-2.675158 z"
     id="path10"
     inkscape:connector-curvature="0"
     style="fill:#ffffff;stroke:#000000;stroke-width:5.80000019;stroke-miterlimit:4;stroke-dasharray:none;stroke-opacity:1" />
</svg>
